<?xml version="1.0" encoding="UTF-8" standalone="no"?>
<!DOCTYPE svg PUBLIC "-//W3C//DTD SVG 1.1//EN"
 "http://www.w3.org/Graphics/SVG/1.1/DTD/svg11.dtd">
<!-- Generated by graphviz version 2.43.0 (0)
 -->
<!-- Title: workflow Pages: 1 -->
<svg width="488pt" height="170pt"
 viewBox="0.00 0.00 488.00 170.00" xmlns="http://www.w3.org/2000/svg" xmlns:xlink="http://www.w3.org/1999/xlink">
<g id="graph0" class="graph" transform="scale(1 1) rotate(0) translate(4 166)">
<title>workflow</title>
<polygon fill="white" stroke="transparent" points="-4,4 -4,-166 484,-166 484,4 -4,4"/>
<!-- place_0e7766b460fd2a39a2fd81d4a3a636b033b52be4 -->
<g id="node1" class="node">
<title>place_0e7766b460fd2a39a2fd81d4a3a636b033b52be4</title>
<ellipse fill="lightblue" stroke="#333333" cx="36" cy="-81" rx="36" ry="36"/>
<text text-anchor="middle" x="36" y="-78.8" font-family="Arial" font-size="9.00">draft</text>
</g>
<!-- place_3afcd875b15dace0a879ef504edd3046730cc7f8 -->
<g id="node2" class="node">
<title>place_3afcd875b15dace0a879ef504edd3046730cc7f8</title>
<ellipse fill="none" stroke="#333333" cx="172" cy="-81" rx="36" ry="36"/>
<text text-anchor="middle" x="172" y="-78.8" font-family="Arial" font-size="9.00">in_review</text>
</g>
<!-- place_0e7766b460fd2a39a2fd81d4a3a636b033b52be4&#45;&gt;place_3afcd875b15dace0a879ef504edd3046730cc7f8 -->
<g id="edge1" class="edge">
<title>place_0e7766b460fd2a39a2fd81d4a3a636b033b52be4&#45;&gt;place_3afcd875b15dace0a879ef504edd3046730cc7f8</title>
<path fill="none" stroke="#333333" d="M72.21,-81C90.07,-81 111.85,-81 130.42,-81"/>
<polygon fill="#333333" stroke="#333333" points="130.56,-82.75 135.56,-81 130.56,-79.25 130.56,-82.75"/>
<text text-anchor="middle" x="104" y="-83.8" font-family="Arial" font-size="9.00">review</text>
</g>
<!-- place_8bbd026b9d35ee4d58394d036892894c8f1608fb -->
<g id="node3" class="node">
<title>place_8bbd026b9d35ee4d58394d036892894c8f1608fb</title>
<ellipse fill="none" stroke="#333333" cx="308" cy="-81" rx="36" ry="36"/>
<text text-anchor="middle" x="308" y="-78.8" font-family="Arial" font-size="9.00">under_vote</text>
</g>
<!-- place_3afcd875b15dace0a879ef504edd3046730cc7f8&#45;&gt;place_8bbd026b9d35ee4d58394d036892894c8f1608fb -->
<g id="edge5" class="edge">
<title>place_3afcd875b15dace0a879ef504edd3046730cc7f8&#45;&gt;place_8bbd026b9d35ee4d58394d036892894c8f1608fb</title>
<path fill="none" stroke="#333333" d="M208.21,-81C226.07,-81 247.85,-81 266.42,-81"/>
<polygon fill="#333333" stroke="#333333" points="266.56,-82.75 271.56,-81 266.56,-79.25 266.56,-82.75"/>
<text text-anchor="middle" x="240" y="-83.8" font-family="Arial" font-size="9.00">vote</text>
</g>
<!-- place_8bbd026b9d35ee4d58394d036892894c8f1608fb&#45;&gt;place_3afcd875b15dace0a879ef504edd3046730cc7f8 -->
<g id="edge2" class="edge">
<title>place_8bbd026b9d35ee4d58394d036892894c8f1608fb&#45;&gt;place_3afcd875b15dace0a879ef504edd3046730cc7f8</title>
<path fill="none" stroke="#333333" d="M273.65,-70.06C267.2,-68.37 260.44,-66.89 254,-66 241.67,-64.29 238.33,-64.29 226,-66 221.17,-66.67 216.16,-67.67 211.23,-68.84"/>
<polygon fill="#333333" stroke="#333333" points="210.77,-67.15 206.35,-70.06 211.62,-70.55 210.77,-67.15"/>
<text text-anchor="middle" x="240" y="-68.8" font-family="Arial" font-size="9.00">review</text>
</g>
<!-- place_1f087a5954f6249bb7245576c304a0520d4178c5 -->
<g id="node4" class="node">
<title>place_1f087a5954f6249bb7245576c304a0520d4178c5</title>
<ellipse fill="none" stroke="#333333" cx="444" cy="-126" rx="36" ry="36"/>
<text text-anchor="middle" x="444" y="-123.8" font-family="Arial" font-size="9.00">rejected</text>
</g>
<!-- place_8bbd026b9d35ee4d58394d036892894c8f1608fb&#45;&gt;place_1f087a5954f6249bb7245576c304a0520d4178c5 -->
<g id="edge3" class="edge">
<title>place_8bbd026b9d35ee4d58394d036892894c8f1608fb&#45;&gt;place_1f087a5954f6249bb7245576c304a0520d4178c5</title>
<path fill="none" stroke="#333333" d="M342.47,-92.24C361.33,-98.58 384.98,-106.52 404.6,-113.1"/>
<polygon fill="#333333" stroke="#333333" points="404.2,-114.82 409.49,-114.75 405.31,-111.5 404.2,-114.82"/>
<text text-anchor="middle" x="376" y="-109.8" font-family="Arial" font-size="9.00">reject</text>
</g>
<!-- place_51c817ab85e3c10c1544cbe74ec1106357ad59f5 -->
<g id="node5" class="node">
<title>place_51c817ab85e3c10c1544cbe74ec1106357ad59f5</title>
<ellipse fill="none" stroke="#333333" cx="444" cy="-36" rx="36" ry="36"/>
<text text-anchor="middle" x="444" y="-33.8" font-family="Arial" font-size="9.00">accepted</text>
</g>
<!-- place_8bbd026b9d35ee4d58394d036892894c8f1608fb&#45;&gt;place_51c817ab85e3c10c1544cbe74ec1106357ad59f5 -->
<g id="edge4" class="edge">
<title>place_8bbd026b9d35ee4d58394d036892894c8f1608fb&#45;&gt;place_51c817ab85e3c10c1544cbe74ec1106357ad59f5</title>
<path fill="none" stroke="#333333" d="M342.47,-69.76C361.33,-63.42 384.98,-55.48 404.6,-48.9"/>
<polygon fill="#333333" stroke="#333333" points="405.31,-50.5 409.49,-47.25 404.2,-47.18 405.31,-50.5"/>
<text text-anchor="middle" x="376" y="-65.8" font-family="Arial" font-size="9.00">accept</text>
</g>
</g>
</svg>
